<?xml version="1.0" encoding="UTF-8" standalone="no"?>
<svg
   viewBox="0 0 40 40"
   version="1.1"
   id="svg8"
   sodipodi:docname="cyborg-face.svg"
   width="40"
   height="40"
   inkscape:version="1.1.2 (0a00cf5339, 2022-02-04)"
   inkscape:export-filename="/home/xdoctorwhoz/work/panduza-qt-app/rsc/images/tree_editor/cyborg-face.png"
   inkscape:export-xdpi="96"
   inkscape:export-ydpi="96"
   xmlns:inkscape="http://www.inkscape.org/namespaces/inkscape"
   xmlns:sodipodi="http://sodipodi.sourceforge.net/DTD/sodipodi-0.dtd"
   xmlns="http://www.w3.org/2000/svg"
   xmlns:svg="http://www.w3.org/2000/svg">
  <defs
     id="defs12" />
  <sodipodi:namedview
     id="namedview10"
     pagecolor="#000000"
     bordercolor="#666666"
     borderopacity="1.0"
     inkscape:pageshadow="2"
     inkscape:pageopacity="0"
     inkscape:pagecheckerboard="0"
     showgrid="false"
     inkscape:zoom="7.2146989"
     inkscape:cx="7.276811"
     inkscape:cy="34.097057"
     inkscape:window-width="1846"
     inkscape:window-height="887"
     inkscape:window-x="0"
     inkscape:window-y="0"
     inkscape:window-maximized="1"
     inkscape:current-layer="svg8" />
  <g
     class=""
     id="g6"
     transform="matrix(0.07032967,0,0,0.07032967,0.95683614,1.8364515)">
    <path
       d="m 218.195,28.5 13.75,110 h 48.11 l 13.75,-110 z m 93.069,5.459 -15.319,122.541 h -79.89 L 200.754,34.08 C 183.364,43.273 167.207,56.771 153,73.975 V 220.5 H 97.623 A 334.688,334.688 0 0 0 96,251.5 c 0,128.13 71.634,232 160,232 71.065,-0.062 133.586,-68.083 153.496,-167 h -7.371 l -32,16 H 300.434 L 263,297.3 v -62.8 h 136 v 16 h 16.965 C 415.63,153.72 373.897,67.407 311.264,33.959 Z M 256,42.5 c 13.7,0 25,11.3 25,25 0,13.7 -11.3,25 -25,25 -13.7,0 -25,-11.3 -25,-25 0,-13.7 11.3,-25 25,-25 z m 0,18 c -3.973,0 -7,3.027 -7,7 0,3.973 3.027,7 7,7 3.973,0 7,-3.027 7,-7 0,-3.973 -3.027,-7 -7,-7 z M 135,100.135 C 117.562,129.463 105.463,164.655 99.809,202.5 H 135 Z m 185,149.38 -32,48 14.977,9.985 32,-48 z m 48,0 -32,48 14.977,9.985 32,-48 z M 144,266.5 h 80 v 18 h -7.045 c -0.458,6.484 -5.303,10.55 -9.617,12.707 -4.533,2.267 -9.704,3.293 -15.338,3.293 -5.634,0 -10.805,-1.026 -15.338,-3.293 -4.314,-2.157 -9.159,-6.223 -9.617,-12.707 H 144 Z m 265,2 v 30 h 30 v -30 z m -217,126 h 128 v 18 H 192 Z m 48,32 h 32 v 18 h -32 z"
       fill="#ffffff"
       fill-opacity="1"
       id="path4" />
  </g>
</svg>
