<?xml version="1.0" encoding="UTF-8" standalone="no"?>
<svg
   viewBox="0 0 40 40"
   version="1.1"
   id="svg8"
   sodipodi:docname="save.svg"
   width="40"
   height="40"
   inkscape:version="1.1.2 (0a00cf5339, 2022-02-04)"
   inkscape:export-filename="/home/xdoctorwhoz/work/panduza-qt-app/rsc/images/tree_editor/save.png"
   inkscape:export-xdpi="96"
   inkscape:export-ydpi="96"
   xmlns:inkscape="http://www.inkscape.org/namespaces/inkscape"
   xmlns:sodipodi="http://sodipodi.sourceforge.net/DTD/sodipodi-0.dtd"
   xmlns="http://www.w3.org/2000/svg"
   xmlns:svg="http://www.w3.org/2000/svg">
  <defs
     id="defs12" />
  <sodipodi:namedview
     id="namedview10"
     pagecolor="#000000"
     bordercolor="#666666"
     borderopacity="1.0"
     inkscape:pageshadow="2"
     inkscape:pageopacity="0"
     inkscape:pagecheckerboard="0"
     showgrid="false"
     inkscape:zoom="10.203125"
     inkscape:cx="36.214395"
     inkscape:cy="29.990812"
     inkscape:window-width="1846"
     inkscape:window-height="887"
     inkscape:window-x="0"
     inkscape:window-y="0"
     inkscape:window-maximized="1"
     inkscape:current-layer="svg8" />
  <g
     class=""
     id="g6"
     transform="matrix(0.07174888,0,0,0.07174888,1.336299,0.64908609)">
    <path
       d="m 64,48 c -8.726,0 -16,7.274 -16,16 v 384 c 0,8.726 7.274,16 16,16 H 279 V 448 H 64 V 64 h 63.375 v 97.53 c 0,3.924 3.443,7.095 7.72,7.095 h 169.81 c 4.277,0 7.72,-3.17 7.72,-7.094 V 64 h 69.22 c 0.428,0.318 0.8,0.548 1.467,1.094 2.05,1.675 4.962,4.264 8.375,7.406 6.827,6.283 15.65,14.837 24.313,23.5 8.663,8.663 17.217,17.486 23.5,24.313 3.142,3.413 5.73,6.324 7.406,8.374 0.546,0.668 0.776,1.04 1.094,1.47 V 330.25 l 16,16 V 128 c 0,-2.68 -0.657,-3.402 -1.03,-4.156 -0.375,-0.754 -0.725,-1.294 -1.095,-1.844 -0.74,-1.1 -1.575,-2.19 -2.594,-3.438 -2.036,-2.492 -4.768,-5.55 -8.03,-9.093 -6.524,-7.09 -15.155,-16 -23.938,-24.782 -8.782,-8.783 -17.692,-17.414 -24.78,-23.938 -3.545,-3.262 -6.6,-5.994 -9.094,-8.03 -1.247,-1.02 -2.337,-1.855 -3.438,-2.595 -0.55,-0.37 -1.09,-0.72 -1.844,-1.094 C 387.403,48.657 386.68,48 384.001,48 Z m 87.72,16 h 48.56 c 4.277,0 7.72,4.425 7.72,9.938 v 70.124 c 0,5.513 -3.443,9.938 -7.72,9.938 h -48.56 c -4.277,0 -7.72,-4.425 -7.72,-9.938 V 73.938 c 0,-5.512 3.443,-9.937 7.72,-9.937 z M 114,212 c -4.432,0 -8,3.568 -8,8 v 184 c 0,4.432 3.568,8 8,8 h 165 v -28 h -76.72 l 15.345,-15.375 128,-128 6.375,-6.345 6.375,6.345 L 406,288.25 V 220 c 0,-4.432 -3.568,-8 -8,-8 z M 352,259.75 245.75,366 H 297 V 494 H 407 V 366 h 51.25 z M 448,384 v 64 h -23 v 16 h 23 c 8.726,0 16,-7.274 16,-16 v -64 z"
       fill="#ffffff"
       fill-opacity="1"
       id="path4" />
  </g>
</svg>
