<?xml version="1.0" encoding="UTF-8" standalone="no"?>
<svg
   viewBox="0 0 80 80"
   version="1.1"
   id="svg8"
   sodipodi:docname="tree.svg"
   inkscape:version="1.1.2 (0a00cf5339, 2022-02-04)"
   inkscape:export-filename="/home/xdoctorwhoz/work/panduza-qt-app/rsc/images/tree_editor/tree.png"
   inkscape:export-xdpi="96"
   inkscape:export-ydpi="96"
   width="80"
   height="80"
   xmlns:inkscape="http://www.inkscape.org/namespaces/inkscape"
   xmlns:sodipodi="http://sodipodi.sourceforge.net/DTD/sodipodi-0.dtd"
   xmlns="http://www.w3.org/2000/svg"
   xmlns:svg="http://www.w3.org/2000/svg">
  <defs
     id="defs12" />
  <sodipodi:namedview
     id="namedview10"
     pagecolor="#000000"
     bordercolor="#666666"
     borderopacity="1.0"
     inkscape:pageshadow="2"
     inkscape:pageopacity="0"
     inkscape:pagecheckerboard="0"
     showgrid="false"
     inkscape:zoom="5.2265624"
     inkscape:cx="101.69208"
     inkscape:cy="57.590435"
     inkscape:window-width="1846"
     inkscape:window-height="903"
     inkscape:window-x="0"
     inkscape:window-y="0"
     inkscape:window-maximized="1"
     inkscape:current-layer="svg8" />
  <path
     d="m 35.887513,7.8932128 c -0.192145,0.0013 -0.383887,0.0087 -0.573873,0.02081 -2.711929,0.173193 -5.067243,1.388496 -6.261983,3.6289942 l 2.380026,1.682521 h -3.957978 c -1.395257,-0.70566 0.05563,-0.03571 -1.535957,-0.708882 -3.127008,-1.761197 -6.587674,-1.294248 -9.080719,0.377533 -2.708957,1.816108 -4.14999,4.807243 -2.734343,8.067967 l 0.417646,0.960749 -0.87364,0.578652 c -2.894352,1.927945 -4.4555595,4.080504 -5.0128255,6.461301 -0.557536,2.3812 -0.110589,5.099924 1.4219925,8.169063 l 0.333523,0.675317 -0.4388455,0.612754 c -1.862863,2.60192 -1.19906,5.191489 0.8058545,6.851186 1.356099,1.122934 2.63037,1.340164 4.004428,0.994449 1.374193,-0.34558 2.855869,-1.362719 4.148099,-2.93676 l 0.358502,-0.436339 0.561048,-0.02511 c 3.744092,-0.161109 6.709604,-1.562091 8.637822,-3.721632 1.928217,-2.15954 2.865321,-5.099118 2.392448,-8.579891 l -0.139349,-1.019556 0.978961,-0.335644 c 1.089146,-0.371626 1.988982,-1.094203 2.540441,-2.085027 l 0.712955,-1.284044 1.164761,0.902214 c 0.862838,0.668068 3.104054,1.127364 4.236544,0.801252 l 1.388101,-0.398747 0.211186,1.422464 c 0.580625,3.942083 3.293769,7.05311 6.759565,8.07629 l 1.113991,0.327322 -0.236302,1.132734 c -0.426962,2.012527 0.202139,3.500777 1.409707,4.485023 1.20716,0.984379 3.077721,1.434278 5.232383,0.864353 l 0.839477,-0.222332 0.510682,0.704855 c 1.82465,2.530093 4.04345,3.770905 6.257525,3.968936 2.21421,0.19803 4.495124,-0.637056 6.485725,-2.630652 1.70461,-1.707224 2.248779,-3.559179 2.033812,-5.42899 C 72.164207,37.976131 71.1207,36.07101 69.442016,34.538723 L 68.294267,33.4899 69.564352,32.591982 c 1.063761,-0.751844 1.450214,-2.137387 1.202706,-3.423578 -0.247509,-1.286193 -1.016364,-2.239022 -2.207052,-2.387108 l -1.265901,-0.155337 0.172837,-1.258668 C 68.255784,19.652335 65.627845,14.942429 61.344446,12.256195 57.060913,9.5696928 51.126377,8.9687538 45.3054,11.840667 l -0.907396,0.448958 -0.636934,-0.7889 C 41.943036,9.2457278 39.166969,8.0411648 36.465034,7.9050268 c -0.193091,-0.0097 -0.385779,-0.01396 -0.577925,-0.01249 z M 35.722778,29.416113 c -0.540522,0.644975 -1.197304,1.171267 -1.924167,1.581828 1.61603,4.026397 2.542601,8.160604 3.11013,12.55742 -0.615059,1.508657 -1.306544,3.004694 -2.092954,4.489184 l -0.0212,0.0086 c -1.153148,-2.622998 -2.440382,-5.230289 -4.211291,-7.484882 -0.06887,0.08149 -0.139757,0.163525 -0.211052,0.243275 -0.489885,0.548847 -1.033243,1.052314 -1.62035,1.510403 1.624942,2.130271 2.842095,4.676205 4.013069,7.375865 1.042966,5.825455 0.862296,12.253326 -0.375651,18.09959 -3.608927,0.681092 -7.453346,2.043408 -11.962784,4.09487 H 54.58056 c -4.378729,-2.05174 -8.137943,-3.418217 -11.705417,-4.098905 -1.883658,-3.237766 -2.840475,-6.730353 -3.139431,-10.203609 1.308704,-6.064971 3.848875,-9.625225 7.696669,-13.329403 -2.602824,1.031102 -5.053065,2.324006 -7.114286,4.287798 0.09479,-0.45782 0.200922,-0.90839 0.311917,-1.354931 1.279538,-3.238706 3.223148,-6.151702 5.798156,-8.781415 -0.781008,-0.363167 -1.519079,-0.804741 -2.198682,-1.325662 -1.716221,1.819464 -3.180614,3.776409 -4.363065,5.877815 0.96627,-2.576008 1.739177,-5.15846 2.439034,-7.732187 -0.734964,-0.880195 -1.354344,-1.870617 -1.831403,-2.945352 -0.562666,2.152156 -1.149368,4.289006 -1.822894,6.406792 -0.626132,-3.132777 -1.501526,-6.186609 -2.751221,-9.192646 -0.05914,-0.02739 -0.118827,-0.05504 -0.177294,-0.08391 z"
     fill="#ffffff"
     fill-opacity="1"
     id="path4"
     style="stroke-width:0.134643" />
</svg>
